<svg version="1.1" id="Capa_1" xmlns="http://www.w3.org/2000/svg" xmlns:xlink="http://www.w3.org/1999/xlink" x="0px" y="0px" viewBox="0 0 512 512" style="enable-background:new 0 0 512 512;" xml:space="preserve"><g><g><path fill="#fff" d="M473.211,377.535c-51.618-9.126-98.818-36.314-132.904-76.557C305.828,260.272,286.84,208.43,286.84,155 c0-45.907,13.695-90.103,39.604-127.811l13.197-19.208l-22.949-4.058C301.967,1.32,286.877,0,271.84,0 C203.46,0,139.173,26.629,90.82,74.98C42.469,123.333,15.84,187.62,15.84,256s26.629,132.667,74.98,181.02 C139.173,485.371,203.46,512,271.84,512c84.356,0,163.28-41.57,211.122-111.2l13.198-19.208L473.211,377.535z M271.84,482 c-60.367,0-117.12-23.508-159.806-66.194C69.348,373.12,45.84,316.367,45.84,256s23.508-117.12,66.194-159.806 C154.72,53.508,211.473,30,271.84,30c5.732,0,11.472,0.217,17.19,0.648C267.907,68.55,256.84,111.087,256.84,155 c0,60.522,21.512,119.251,60.574,165.367c33.378,39.407,77.873,67.762,127.123,81.4C401.786,452.374,338.748,482,271.84,482z"/></g></g></svg>