<svg width="120" height="119" viewBox="0 0 120 119" fill="none" xmlns="http://www.w3.org/2000/svg">
<path d="M61.2667 10.5179L53.7234 46.8268L40.1073 37.894L39.8206 38.1798L48.738 51.7743L12.501 59.3003V59.9497L48.7242 67.4756L39.7491 81.1572L40.0349 81.443L53.6595 72.5066L61.2004 108.813H61.8498L69.3948 72.4983L83.0117 81.4303L83.2975 81.1444L74.3769 67.545L110.611 60.0179V59.3685L74.3962 51.8442L83.3644 38.1737L83.0777 37.8879L69.4564 46.8224L61.9155 10.5191H61.2661L61.2667 10.5179ZM61.2607 13.8073V51.7714V58.8138L53.5186 51.0692L54.3192 47.2176L61.2607 13.8075L61.2607 13.8073ZM81.6264 39.3329L70.2618 50.6976L69.5467 47.2562L81.6263 39.3329H81.6264ZM41.2664 39.6308L52.605 50.9695L49.1715 51.6828L41.2664 39.6309V39.6308ZM70.0614 51.6189L74.0038 52.4385L107.323 59.3609H69.4634H62.3191L70.0628 51.6188L70.0614 51.6189ZM15.7902 59.9551H53.6576H60.8011L53.0574 67.6988L49.1143 66.8793L15.7899 59.9552L15.7902 59.9551ZM61.854 60.5104L69.5977 68.2541L68.7972 72.1058L61.854 105.521V67.5489V60.509L61.854 60.5104ZM73.9407 67.6332L81.8494 79.6912L70.5047 68.3464L73.9407 67.6331V67.6332ZM52.8532 68.6297L53.5674 72.0719L41.4859 79.9969L52.853 68.6297H52.8532Z" fill="white"/>
<path d="M65.2179 0.45899C64.5735 0.518921 64.2514 1.54434 64.2514 3.53526V7.21312H63.8198L59.4458 1.05534V2.91226C59.4458 3.82323 59.4769 4.50348 59.5391 4.95301C59.6726 5.93782 59.9672 6.45881 60.4228 6.51604V6.97019H57.8936V6.51842C58.5345 6.4199 58.855 5.23725 58.855 2.97043V1.14816C58.855 0.881324 58.8087 0.703031 58.716 0.613247C58.6233 0.523482 58.4055 0.474554 58.0626 0.466466V0.000229387H59.9754L63.6344 5.15985V3.69882C63.6344 1.60512 63.314 0.524719 62.6733 0.457844V0H65.218L65.2179 0.45899Z" fill="white"/>
<path d="M120 59.3452C120 60.0606 119.797 60.7435 119.391 61.3937C118.986 62.0438 118.461 62.5325 117.817 62.8597C117.237 63.1551 116.626 63.3028 115.984 63.3028C115.046 63.3028 114.26 62.9859 113.626 62.3521C112.992 61.7183 112.675 60.936 112.675 60.0053C112.675 58.9505 113.066 58.0237 113.847 57.2248C114.628 56.4259 115.548 56.0265 116.607 56.0265C117.829 56.0265 118.781 56.521 119.465 57.5101C119.822 58.0242 120 58.6359 120 59.3451L120 59.3452ZM118.87 60.2746C118.87 59.6426 118.74 59.0493 118.48 58.4945C118.192 57.889 117.798 57.4417 117.297 57.1526C116.81 56.873 116.36 56.7331 115.947 56.7331C115.291 56.7331 114.765 56.9655 114.367 57.4303C113.992 57.8716 113.805 58.4341 113.805 59.1179C113.805 60.0367 114.067 60.8353 114.592 61.5135C115.162 62.2494 115.885 62.6174 116.76 62.6174C117.38 62.6174 117.892 62.3838 118.296 61.9168C118.679 61.467 118.87 60.9197 118.87 60.2746H118.87Z" fill="white"/>
<path d="M63.6975 116.548C63.6975 117.173 63.4092 117.71 62.8326 118.161C62.3073 118.573 61.7251 118.779 61.0861 118.779C60.607 118.779 60.05 118.656 59.415 118.411V116.33H60.0271C60.0271 116.866 60.1563 117.307 60.4149 117.652C60.6925 118.024 61.0465 118.21 61.477 118.21C61.8174 118.21 62.0941 118.111 62.3068 117.912C62.5196 117.714 62.6259 117.444 62.626 117.103C62.626 116.749 62.4606 116.416 62.1298 116.105C61.9899 115.976 61.6551 115.735 61.1252 115.382C60.6707 115.08 60.3325 114.835 60.1106 114.645C59.947 114.505 59.8153 114.328 59.7157 114.113C59.6243 113.922 59.5787 113.721 59.5787 113.512C59.5787 112.925 59.8518 112.432 60.398 112.032C60.8826 111.679 61.4254 111.503 62.0264 111.503C62.3514 111.503 62.808 111.604 63.3962 111.807V113.646H62.7798C62.7522 113.179 62.6329 112.808 62.422 112.532C62.1926 112.229 61.8987 112.077 61.5403 112.077C61.2797 112.077 61.0617 112.156 60.8862 112.313C60.7113 112.475 60.6239 112.687 60.6239 112.947C60.6239 113.277 60.8145 113.614 61.1955 113.956C61.3423 114.088 61.6902 114.339 62.2391 114.706C62.7324 115.035 63.0555 115.277 63.2083 115.434C63.5344 115.764 63.6975 116.136 63.6975 116.548V116.548Z" fill="white"/>
<path d="M10.4134 56.5237C10.006 56.5308 9.61755 56.9984 9.24794 57.9265L7.10856 63.2751H6.62145L5.15031 58.8124C4.89647 59.3836 4.66397 59.9367 4.45278 60.4717L3.3486 63.275H2.87124L1.06715 57.9528C0.83666 57.2686 0.619753 56.841 0.416419 56.6702C0.310037 56.582 0.171231 56.5308 0 56.5164V56.0565H2.07979V56.5221C1.94962 56.5257 1.88454 56.549 1.88454 56.5921C1.88454 56.6126 1.88914 56.6365 1.89834 56.6638L3.46947 61.5435L4.23232 59.3947C4.48435 58.7589 4.61036 58.1556 4.61036 57.5849C4.61036 56.9062 4.31455 56.5511 3.72296 56.5194V56.0566H5.82966V56.5228C5.67816 56.5264 5.60243 56.5477 5.60243 56.5868C5.60243 56.6108 5.60703 56.6365 5.61624 56.6639L7.2072 61.5435L8.16665 58.8824C8.49251 58.0572 8.65544 57.4733 8.65544 57.1308C8.65543 56.8855 8.5982 56.7234 8.48375 56.6444C8.38073 56.5714 8.15283 56.5309 7.80002 56.5228V56.0566H10.4134V56.5237Z" fill="white"/>
</svg>
