<svg width="124" height="119" viewBox="0 0 124 119" fill="none" xmlns="http://www.w3.org/2000/svg">
<g clip-path="url(#clip0)">
<path d="M61.2667 10.5179L53.7234 46.8268L40.1073 37.894L39.8206 38.1798L48.738 51.7743L12.501 59.3003V59.9497L48.7242 67.4756L39.7491 81.1572L40.0349 81.443L53.6595 72.5066L61.2004 108.813H61.8498L69.3948 72.4983L83.0117 81.4303L83.2975 81.1444L74.3769 67.545L110.611 60.0179V59.3685L74.3962 51.8442L83.3644 38.1737L83.0777 37.8879L69.4564 46.8224L61.9155 10.5191H61.2661L61.2667 10.5179ZM61.2607 13.8073V51.7714V58.8138L53.5186 51.0692L54.3192 47.2176L61.2607 13.8075V13.8073ZM81.6264 39.3329L70.2618 50.6976L69.5467 47.2562L81.6263 39.3329H81.6264ZM41.2664 39.6308L52.605 50.9695L49.1715 51.6828L41.2664 39.6309V39.6308ZM70.0614 51.6189L74.0038 52.4385L107.323 59.3609H69.4634H62.3191L70.0628 51.6188L70.0614 51.6189ZM15.7902 59.9551H53.6576H60.8011L53.0574 67.6988L49.1143 66.8793L15.7899 59.9552L15.7902 59.9551ZM61.854 60.5104L69.5977 68.2541L68.7972 72.1058L61.854 105.521V67.5489V60.509V60.5104ZM73.9407 67.6332L81.8494 79.6912L70.5047 68.3464L73.9407 67.6331V67.6332ZM52.8532 68.6297L53.5674 72.0719L41.4859 79.9969L52.853 68.6297H52.8532Z" fill="white"/>
<path d="M65.2179 112.459C64.5735 112.519 64.2514 113.544 64.2514 115.535V119.213H63.8198L59.4458 113.055V114.912C59.4458 115.823 59.4769 116.503 59.5391 116.953C59.6726 117.938 59.9672 118.459 60.4228 118.516V118.97H57.8936V118.518C58.5345 118.42 58.855 117.237 58.855 114.97V113.148C58.855 112.881 58.8087 112.703 58.716 112.613C58.6233 112.523 58.4055 112.475 58.0626 112.466V112H59.9754L63.6344 117.16V115.699C63.6344 113.605 63.314 112.525 62.6733 112.458V112H65.218L65.2179 112.459Z" fill="white"/>
<path d="M8.00005 59.3452C8.00005 60.0606 7.79704 60.7435 7.39104 61.3937C6.98604 62.0438 6.46105 62.5325 5.81705 62.8597C5.23705 63.1551 4.62605 63.3028 3.98405 63.3028C3.04605 63.3028 2.26005 62.9859 1.62605 62.3521C0.992045 61.7183 0.675049 60.936 0.675049 60.0053C0.675049 58.9505 1.06605 58.0237 1.84705 57.2248C2.62805 56.4259 3.54805 56.0265 4.60705 56.0265C5.82905 56.0265 6.78104 56.521 7.46504 57.5101C7.82204 58.0242 8.00005 58.6359 8.00005 59.3451V59.3452ZM6.87005 60.2746C6.87005 59.6426 6.74005 59.0493 6.48005 58.4945C6.19205 57.889 5.79804 57.4417 5.29704 57.1526C4.81004 56.873 4.36004 56.7331 3.94704 56.7331C3.29104 56.7331 2.76504 56.9655 2.36704 57.4303C1.99204 57.8716 1.80505 58.4341 1.80505 59.1179C1.80505 60.0367 2.06705 60.8353 2.59205 61.5135C3.16205 62.2494 3.88505 62.6174 4.76005 62.6174C5.38005 62.6174 5.89204 62.3838 6.29604 61.9168C6.67904 61.467 6.87005 60.9197 6.87005 60.2746Z" fill="white"/>
<path d="M63.6975 4.54805C63.6975 5.17305 63.4092 5.71006 62.8326 6.16106C62.3073 6.57306 61.7251 6.77905 61.0861 6.77905C60.607 6.77905 60.05 6.65606 59.415 6.41106V4.33006H60.0271C60.0271 4.86606 60.1563 5.30705 60.4149 5.65205C60.6925 6.02405 61.0465 6.21005 61.477 6.21005C61.8174 6.21005 62.0941 6.11106 62.3068 5.91206C62.5196 5.71406 62.6259 5.44405 62.626 5.10305C62.626 4.74905 62.4606 4.41606 62.1298 4.10506C61.9899 3.97606 61.6551 3.73506 61.1252 3.38206C60.6707 3.08006 60.3325 2.83505 60.1106 2.64505C59.947 2.50505 59.8153 2.32805 59.7157 2.11305C59.6243 1.92205 59.5787 1.72105 59.5787 1.51205C59.5787 0.925054 59.8518 0.432051 60.398 0.0320511C60.8826 -0.320949 61.4254 -0.496948 62.0264 -0.496948C62.3514 -0.496948 62.808 -0.395947 63.3962 -0.192947V1.64606H62.7798C62.7522 1.17906 62.6329 0.808051 62.422 0.532051C62.1926 0.229051 61.8987 0.0770569 61.5403 0.0770569C61.2797 0.0770569 61.0617 0.156057 60.8862 0.313057C60.7113 0.475057 60.6239 0.687052 60.6239 0.947052C60.6239 1.27705 60.8145 1.61405 61.1955 1.95605C61.3423 2.08805 61.6902 2.33905 62.2391 2.70605C62.7324 3.03505 63.0555 3.27705 63.2083 3.43405C63.5344 3.76405 63.6975 4.13605 63.6975 4.54805Z" fill="white"/>
<path d="M122.413 56.5237C122.006 56.5308 121.618 56.9984 121.248 57.9265L119.109 63.2751H118.621L117.15 58.8124C116.896 59.3836 116.664 59.9367 116.453 60.4717L115.349 63.275H114.871L113.067 57.9528C112.837 57.2686 112.62 56.841 112.416 56.6702C112.31 56.582 112.171 56.5308 112 56.5164V56.0565H114.08V56.5221C113.95 56.5257 113.885 56.549 113.885 56.5921C113.885 56.6126 113.889 56.6365 113.898 56.6638L115.469 61.5435L116.232 59.3947C116.484 58.7589 116.61 58.1556 116.61 57.5849C116.61 56.9062 116.315 56.5511 115.723 56.5194V56.0566H117.83V56.5228C117.678 56.5264 117.602 56.5477 117.602 56.5868C117.602 56.6108 117.607 56.6365 117.616 56.6639L119.207 61.5435L120.167 58.8824C120.493 58.0572 120.655 57.4733 120.655 57.1308C120.655 56.8855 120.598 56.7234 120.484 56.6444C120.381 56.5714 120.153 56.5309 119.8 56.5228V56.0566H122.413V56.5237Z" fill="white"/>
</g>
<defs>
<clipPath id="clip0">
<rect width="124" height="119" fill="white"/>
</clipPath>
</defs>
</svg>
