<svg xmlns="http://www.w3.org/2000/svg" width="55" height="76"><g fill="none" stroke="#54AF47" stroke-width="2" stroke-miterlimit="10" stroke-linecap="round" stroke-linejoin="round"><path d="M11.3 22.13C5.17 25.3 1 31.65 1 39c0 10.5 8.5 19 19 19 4.2 0 8.05-1.37 11.2-3.67M38.03 45c-1.27 3.78-3.7 7.02-6.84 9.33 1.52.43 3.13.67 4.8.67 9.94 0 18-8.06 18-18 0-5.95-2.9-11.2-7.35-14.5M36 19c4 0 7.67 1.3 10.65 3.5.23-1.12.35-2.3.35-3.5 0-9.94-8.06-18-18-18S11 9.06 11 19c0 1.07.1 2.1.3 3.13C13.9 20.78 16.85 20 20 20M28 62v13M28 33v18M28 29v-3M22.5 41l5.5 5.5M34 34.5L28.5 40"/></g></svg>