<svg xmlns="http://www.w3.org/2000/svg" width="80" height="65"><path fill="none" stroke="#54AF47" stroke-width="2" stroke-miterlimit="10" d="M13.38 1.77M67.53 33.1L63 44.7c-.38 1.02-1.53 1.56-2.56 1.18L2.73 25.15c-1.03-.37-1.56-1.52-1.18-2.56L9.44 2.46C9.8 1.43 10.96.9 12 1.27L69.7 22"/><path fill="none" stroke="#54AF47" stroke-width="2" stroke-miterlimit="10" d="M5.1 44H2v20h3.1c1.05 0 1.9-.85 1.9-1.9V45.9c0-1.05-.85-1.9-1.9-1.9zM31.16 40.97c-2.36 4.66-5.8 11.25-6.4 12.45C23.1 56.74 20.71 57 20.02 57H7.27v-7h11.5c.53-1.17 4-7.27 6.36-11.96M6.67 9.53S5.42 14.37 10 16c2.98 1.06 45.5 16.75 49 18s17-4 19-6 .62-2.4-1.38-3.4c-.4-.2-3.33-1.3-7.7-2.9M36.36 37.23c-1.02 2.2-3.25 3.74-5.84 3.74-3.55 0-6.43-2.88-6.43-6.43 0-.57.07-1.12.2-1.64"/></svg>