<svg xmlns="http://www.w3.org/2000/svg" width="70" height="70" viewBox="0 0 70.000001 70.000001"><g><g fill="none" stroke="#6dac3a" stroke-miterlimit="10" stroke-linecap="round" stroke-linejoin="round"><path d="M36.6 28.27l-10.2-10.2c1.48-4.18.55-9.03-2.8-12.38-3.1-3.1-7.45-4.13-11.4-3.12l5.23 5.23-1.82 6.8-6.76 1.8-5.23-5.23c-1 3.95.03 8.3 3.12 11.4 3.35 3.35 8.2 4.28 12.38 2.8l10.2 10.2"/><path d="M32.88 39.16l11.77 11.77c-1.46 4.2-.54 9.04 2.82 12.4 3.1 3.08 7.45 4.1 11.4 3.1l-5.24-5.24 1.82-6.78 6.77-1.8 5.23 5.22c1-3.95-.02-8.3-3.1-11.4-3.36-3.35-8.2-4.28-12.4-2.8L40.2 31.83"/><g><path d="M14.8 64.92c-2.5 2.5-6.6 2.5-9.1 0l-2.18-2.18c-2.5-2.5-2.5-6.6 0-9.1l12.43-12.42c2.5-2.5 6.6-2.5 9.1 0l2.18 2.18c2.5 2.5 2.5 6.6 0 9.1L14.8 64.92z"/><path d="M60.56 2.2L53.2 9.54 52.2 12.7 24.35 40.5l3.6 3.6 27.82-27.82 3.14-1.04 7.36-7.35z"/><g><path d="M20.43 44L6.6 57.84"/><path d="M24.45 48.03L10.6 61.86"/></g></g></g></g></svg>