<svg xmlns="http://www.w3.org/2000/svg" width="70" height="70" viewBox="0 0 70.000001 70.000001"><g><g><path fill="none" stroke="#6dac3a" stroke-width="1.66" stroke-miterlimit="10" d="M35.02 3.6c6.68 0 12.1 5.87 12.1 11.9 0 2.2-24.2 2.2-24.2 0 0-6.03 5.42-11.9 12.1-11.9z" stroke-linecap="round" stroke-linejoin="round"/><g><path fill="none" stroke="#6dac3a" stroke-width="1.66" stroke-miterlimit="10" d="M39.06 13.28c-3.53.24-4.56.24-8.07 0" stroke-linecap="round" stroke-linejoin="round"/></g><g fill="none" stroke="#6dac3a" stroke-miterlimit="10" stroke-linecap="round" stroke-linejoin="round"><path d="M32.95 7.22V2.3"/><path d="M37.1 7.22V2.3"/></g><g fill="none" stroke="#6dac3a" stroke-miterlimit="10" stroke-linecap="round" stroke-linejoin="round"><g><path d="M39.6 24.8c1.8 0 3.26-1.93 3.26-4.3h-6.5c0 2.37 1.44 4.3 3.24 4.3z"/><path d="M30.44 24.8c1.8 0 3.26-1.93 3.26-4.3h-6.52c0 2.37 1.46 4.3 3.26 4.3z"/></g><path d="M33.53 21.78h2.82"/></g><path fill="none" stroke="#6dac3a" stroke-width="1.66" stroke-miterlimit="10" d="M25.03 16.48c-.13.56.08.8 0 1.4-1.47.42-2.86-.07-2.86 1.54 0 1.7 1.2 4.94 2.8 5.3 1.27 5.98 5.3 10.36 10.05 10.36 4.76 0 8.78-4.38 10.06-10.37 1.6-.34 2.8-3.58 2.8-5.28 0-1.6-1.35-1.13-2.82-1.55-.08-.52.1-.7 0-1.2" stroke-linecap="round" stroke-linejoin="round"/><g><g><g><g><path fill="none" stroke="#6dac3a" stroke-width="1.66" stroke-miterlimit="10" d="M15.8 56c0 1.83-1.5 3.32-3.32 3.32h-.97c-1.8 0-3.3-1.5-3.3-3.3v-7.6c0-1.82 1.5-3.3 3.3-3.3h.98c1.82 0 3.3 1.48 3.3 3.3v7.6z" stroke-linecap="round" stroke-linejoin="round"/></g><g fill="none" stroke="#6dac3a" stroke-miterlimit="10" stroke-linecap="round" stroke-linejoin="round"><path d="M12 49.1h3.8"/><path d="M12 52.2h3.8"/><path d="M12 55.32h3.8"/></g></g><g><g><path fill="none" stroke="#6dac3a" stroke-width="1.66" stroke-miterlimit="10" d="M53.1 48.42c0-1.82 1.5-3.3 3.32-3.3h.97c1.8 0 3.3 1.48 3.3 3.3v7.6c0 1.8-1.5 3.3-3.3 3.3h-.98c-1.82 0-3.3-1.5-3.3-3.3v-7.6z" stroke-linecap="round" stroke-linejoin="round"/></g><g fill="none" stroke="#6dac3a" stroke-miterlimit="10" stroke-linecap="round" stroke-linejoin="round"><path d="M56.9 55.32h-3.8"/><path d="M56.9 52.2h-3.8"/><path d="M56.9 49.1h-3.8"/></g></g></g><path fill="none" stroke="#6dac3a" stroke-width="1.66" stroke-miterlimit="10" d="M12 45.1v-9.5l22.45 4.96v28.27L12 63.87v-4.55" stroke-linecap="round" stroke-linejoin="round"/><path fill="none" stroke="#6dac3a" stroke-width="1.66" stroke-miterlimit="10" d="M34.45 68.83l22.45-4.96v-4.55" stroke-linecap="round" stroke-linejoin="round"/><path fill="none" stroke="#6dac3a" stroke-width="1.66" stroke-miterlimit="10" d="M56.9 45.1v-9.5l-22.45 4.96" stroke-linecap="round" stroke-linejoin="round"/></g><path fill="none" stroke="#6dac3a" stroke-width="1.66" stroke-miterlimit="10" d="M40.88 32.62c3.72.8 7 2.35 9.55 4.4" stroke-linecap="round" stroke-linejoin="round"/><path fill="none" stroke="#6dac3a" stroke-width="1.66" stroke-miterlimit="10" d="M19.37 37.22c2.58-2.15 5.97-3.78 9.8-4.6" stroke-linecap="round" stroke-linejoin="round"/></g></g></svg>