<svg xmlns="http://www.w3.org/2000/svg" width="70" height="70" viewBox="0 0 70.000001 70.000001"><g><g><g><g fill="none" stroke="#6dac3a" stroke-miterlimit="10" stroke-linejoin="round"><path stroke-width="1.50968" d="M15.02 27.75C10.86 30.23 5.47 28.85 3 24.7.5 20.53 1.9 15.15 6.04 12.67c4.17-2.48 9.55-1.1 12.03 3.06" stroke-linecap="round"/><path stroke-width="1.54141" d="M57.05 24.03c10.55 0 11.34-6.94 11.34-10.27h-6.2c-1.08-3.33-3.9-4.98-7.23-4.98-4.25 0-6.68 2.96-8.12 7.4-4.1 12.63-21.64 8.54-26.36 9.1-4.58.53-7.85 3.8-9.03 8.25-1.25 4.72 1.62 10.8-2.98 15.4C6.36 51.05 8.76 59 8.76 59h7.2s1.12-5.35-3.46-3.97c0-6.45 10-7.7 9.73-14.9 16.37 5.68 21.92 2 21.92 2L45.12 59h7.2s1.12-5.35-3.46-3.97c0-3.15.42-9.57 4.93-14.98 4.74-5.7 3.25-16.02 3.25-16.02z"/><path d="M52.96 9.1c2.15.32 5.27 7.84 1.87 9.72-1.46.8-7.63-.74-7.63-3.47" stroke-linecap="round"/><path d="M44.35 20.62s4.3 5.7 12.77 6.24" stroke-linecap="round"/></g></g></g></g></svg>