<svg xmlns="http://www.w3.org/2000/svg" width="70" height="70" viewBox="0 0 70.000001 70.000001"><g><g><g><path fill="none" stroke="#6dac3a" stroke-width="1.79" stroke-miterlimit="10" d="M45.55 5.35h10.5c1.26 0 2.25.98 2.25 2.24v58.23c0 1.25-1 2.24-2.24 2.24h-41.8c-1.27 0-2.25-1-2.25-2.24V7.6c0-1.27 1-2.25 2.25-2.25h11.28M19.2 17.23h9.5v9.62h-9.5v-9.62zm33.87 4.06H36.65M28.7 44.14h-9.5v-9.62h6.63m27.24 4.06H36.65M19.2 51.82h9.5v9.62h-9.5v-9.62zm33.87 4.07H36.65" stroke-linecap="round" stroke-linejoin="round"/></g><path fill="none" stroke="#6dac3a" stroke-width="1.79" stroke-miterlimit="10" d="M32.24 34.86L25.8 41.3l-3.33-3.34" stroke-linecap="round" stroke-linejoin="round"/><g><path fill="none" stroke="#6dac3a" stroke-width="1.79" stroke-miterlimit="10" d="M45.55 8.3c0 1-.8 1.8-1.8 1.8H27.33c-1 0-1.8-.8-1.8-1.8V3.2c0-1 .8-1.8 1.8-1.8h16.42c1 0 1.8.8 1.8 1.8v5.1z" stroke-linecap="round" stroke-linejoin="round"/></g></g></g></svg>