<svg xmlns="http://www.w3.org/2000/svg" width="67" height="73"><path fill="none" stroke="#54AF47" stroke-width="2" stroke-miterlimit="10" d="M4 1h59v69H4zM46 64h-7V7h19v57h-5"/><path fill="none" stroke="#54AF47" stroke-width="2" stroke-miterlimit="10" d="M9 7h19v57H9zM0 70h67"/><path fill="none" stroke="#54AF47" stroke-miterlimit="10" d="M0 72.5h67"/><path fill="#54AF47" fill-rule="evenodd" d="M55 57.3c0 .22 0 .46 0 .7-.72 3.94-1.36 7.95-1.98 12-2.4 0-4.8 0-7.2 0-.75-4-1.84-12.62-1.84-12.67 1.52-.02 3.34.05 4.95-.04 0-1.24 0-2.46 0-3.7-3.13-.48-2.32-4.9-2.4-8.46 1.24.64 1.93 1.83 3.24 2.4.94-.7 2-2.04 2.97-2.26.1 2.93.66 5.68-.7 7.35-.65.78-1.85.45-1.7 1.83.74-.3 1.22-.05 1.55 1-.42.66-1.76.5-1.56 1.78 1.27.03 2.9 0 4.66.05zm-3.7-9.1c-.54.35-1.1 1.14-1.8 1.32-.46-.4-.84-.86-1.42-1.13-1.3 4.96 4.86 4.28 3.2-.2zm-4.35 20.1c1.7 0 3.4 0 5.08 0 .46-3.12.83-6.33 1.27-9.46-2.5 0-4.98 0-7.48 0 .24 3.3.87 6.2 1.13 9.47z" clip-rule="evenodd"/><path fill="none" stroke="#54AF47" stroke-miterlimit="10" d="M33.5 1v69"/><path fill="none" stroke="#54AF47" stroke-width="2" stroke-miterlimit="10" d="M31.06 35.13V41M36.06 35.13V41"/></svg>