<svg xmlns="http://www.w3.org/2000/svg" width="70" height="70" viewBox="0 0 70.000001 70.000001"><g><g fill="none" stroke="#6dac3a" stroke-miterlimit="10" stroke-linecap="round" stroke-linejoin="round"><path d="M1.86 11.05h8.88v45.1H1.86z"/><path d="M58.74 11.05h8.88v45.1h-8.88z"/><path d="M10.9 49.3H24.6v6.84H10.9z"/><path d="M24.58 49.3h13.66v6.84H24.58z"/><path d="M38.24 49.3H51.9v6.84H38.24z"/><path d="M51.9 49.3h6.83v6.84H51.9z"/><path d="M10.9 42.47h6.84v6.83H10.9z"/><path d="M17.74 42.47H31.4v6.83H17.75z"/><path d="M31.4 42.47h13.67v6.83H31.4z"/><path d="M45.07 42.47h13.67v6.83H45.07z"/><path d="M10.9 35.64H24.6v6.83H10.9z"/><path d="M24.58 35.64h13.66v6.83H24.58z"/><path d="M38.24 35.64H51.9v6.83H38.24z"/><path d="M51.9 35.64h6.83v6.83H51.9z"/><path d="M10.9 28.8h6.84v6.84H10.9z"/><path d="M17.74 28.8H31.4v6.84H17.75z"/><path d="M31.4 28.8h13.67v6.84H31.4z"/><path d="M10.9 21.98H24.6v6.83H10.9z"/><path d="M24.58 21.98h13.66v6.83H24.58z"/></g></g></svg>