<svg xmlns="http://www.w3.org/2000/svg" width="70" height="70" viewBox="0 0 70.000001 70.000001"><g><g><g><path fill="none" stroke="#6dac3a" stroke-width="1.71" stroke-miterlimit="10" d="M13.8 2.96h42.26c2.12 0 3.8 1.7 3.8 3.84v48.3c0 2.1-1.62 3.77-3.68 3.83-.06 0-.1 0-.1 0h-7.42c-.1-.03-.22-.03-.34 0h-34.4c-.08-.03-.13-.03-.22-.03h-.03c-2.03-.08-3.64-1.73-3.64-3.8V6.8c0-2.13 1.66-3.84 3.78-3.84zM40.78 9.7H29.52m-12.68 6.05H53c1.2 0 2.13.94 2.13 2.13v18.8c0 1.23-.93 2.16-2.14 2.16H16.83c-1.2 0-2.18-.93-2.18-2.16v-18.8c0-1.2 1-2.13 2.18-2.13zm1.3 29.3c2.32 0 4.13 1.83 4.13 4.2 0 2.32-1.8 4.22-4.13 4.22-2.32 0-4.16-1.9-4.16-4.23 0-2.36 1.84-4.2 4.16-4.2zm33.6 0c2.3 0 4.15 1.83 4.15 4.2 0 2.32-1.84 4.22-4.16 4.22-2.32 0-4.16-1.9-4.16-4.23 0-2.36 1.84-4.2 4.16-4.2z" stroke-linecap="round" stroke-linejoin="round"/><g><path fill="none" stroke="#6dac3a" stroke-width="1.71" stroke-miterlimit="10" d="M21.05 59.26v6.53c0 .82-.7 1.5-1.52 1.5h-3.6c-.82 0-1.5-.68-1.5-1.5v-6.54" stroke-linecap="round" stroke-linejoin="round"/></g><g><path fill="none" stroke="#6dac3a" stroke-width="1.71" stroke-miterlimit="10" d="M55.2 59.26v6.53c0 .82-.68 1.5-1.52 1.5h-3.6c-.82 0-1.5-.68-1.5-1.5v-6.54" stroke-linecap="round" stroke-linejoin="round"/></g><g><path fill="none" stroke="#6dac3a" stroke-width="1.71" stroke-miterlimit="10" d="M7.05 29.67c0 .66-.55 1.2-1.22 1.2H2.96c-.67 0-1.2-.54-1.2-1.2v-7.65c0-.66.53-1.2 1.2-1.2h2.87c.67 0 1.22.54 1.22 1.2v7.65z" stroke-linecap="round" stroke-linejoin="round"/></g><path fill="none" stroke="#6dac3a" stroke-width="1.71" stroke-miterlimit="10" d="M7.05 28.44h2.97" stroke-linecap="round" stroke-linejoin="round"/><g><path fill="none" stroke="#6dac3a" stroke-width="1.71" stroke-miterlimit="10" d="M63.03 29.67c0 .66.54 1.2 1.2 1.2h2.88c.68 0 1.22-.54 1.22-1.2v-7.65c0-.66-.54-1.2-1.2-1.2h-2.88c-.67 0-1.2.54-1.2 1.2v7.65z" stroke-linecap="round" stroke-linejoin="round"/></g><path fill="none" stroke="#6dac3a" stroke-width="1.71" stroke-miterlimit="10" d="M63.03 28.44h-3" stroke-linecap="round" stroke-linejoin="round"/></g></g></g></svg>