<svg xmlns="http://www.w3.org/2000/svg" width="70" height="70" viewBox="0 0 70.000001 70.000001"><g><g fill="none" stroke="#6dac3a" stroke-miterlimit="10" stroke-linecap="round" stroke-linejoin="round"><path d="M1.77 18.05v.63"/><path d="M5.5 18.05v.63"/><path d="M24.04 18.05v.63"/><path d="M27.75 18.05v.63"/><path d="M31.46 18.05v.63"/><path d="M35.17 18.05v.63"/><path d="M38.88 18.05v.63"/><path d="M46.3 18.05v.63"/><path d="M50 18.05v.63"/><path d="M53.72 18.05v.63"/><path d="M57.44 18.05v.63"/><path d="M61.15 18.05v.63"/><path d="M1.77 21.8v.6"/><path d="M5.5 21.8v.6"/><path d="M24.04 21.8v.6"/><path d="M27.75 21.8v.6"/><path d="M31.46 21.8v.6"/><path d="M35.17 21.8v.6"/><path d="M38.88 21.8v.6"/><path d="M46.3 21.8v.6"/><path d="M50 21.8v.6"/><path d="M53.72 21.8v.6"/><path d="M57.44 21.8v.6"/><path d="M61.15 21.8v.6"/><path d="M64.86 21.8v.6"/><path d="M1.77 25.5v.64"/><path d="M5.5 25.5v.64"/><path d="M24.04 25.5v.64"/><path d="M27.75 25.5v.64"/><path d="M46.3 25.5v.64"/><path d="M50 25.5v.64"/><path d="M61.15 25.5v.64"/><path d="M64.86 25.5v.64"/><path d="M68.57 25.5v.64"/><path d="M1.77 29.25v.62"/><path d="M5.5 29.25v.62"/><path d="M24.04 29.25v.62"/><path d="M27.75 29.25v.62"/><path d="M46.3 29.25v.62"/><path d="M50 29.25v.62"/><path d="M64.86 29.25v.62"/><path d="M68.57 29.25v.62"/><path d="M1.77 32.97v.63"/><path d="M5.5 32.97v.63"/><path d="M24.04 32.97v.63"/><path d="M27.75 32.97v.63"/><path d="M31.46 32.97v.63"/><path d="M35.17 32.97v.63"/><path d="M38.88 32.97v.63"/><path d="M46.3 32.97v.63"/><path d="M50 32.97v.63"/><path d="M64.86 32.97v.63"/><path d="M68.57 32.97v.63"/><path d="M1.77 36.7v.63"/><path d="M5.5 36.7v.63"/><path d="M24.04 36.7v.63"/><path d="M27.75 36.7v.63"/><path d="M31.46 36.7v.63"/><path d="M35.17 36.7v.63"/><path d="M38.88 36.7v.63"/><path d="M46.3 36.7v.63"/><path d="M50 36.7v.63"/><path d="M64.86 36.7v.63"/><path d="M68.57 36.7v.63"/><path d="M1.77 40.44v.62"/><path d="M5.5 40.44v.62"/><path d="M24.04 40.44v.62"/><path d="M27.75 40.44v.62"/><path d="M46.3 40.44v.62"/><path d="M50 40.44v.62"/><path d="M64.86 40.44v.62"/><path d="M68.57 40.44v.62"/><path d="M1.77 44.16v.63"/><path d="M5.5 44.16v.63"/><path d="M24.04 44.16v.63"/><path d="M27.75 44.16v.63"/><path d="M46.3 44.16v.63"/><path d="M50 44.16v.63"/><path d="M61.15 44.16v.63"/><path d="M64.86 44.16v.63"/><path d="M68.57 44.16v.63"/><path d="M1.77 47.9v.62"/><path d="M5.5 47.9v.62"/><path d="M9.2 47.9v.62"/><path d="M12.9 47.9v.62"/><path d="M16.62 47.9v.62"/><path d="M24.04 47.9v.62"/><path d="M27.75 47.9v.62"/><path d="M31.46 47.9v.62"/><path d="M35.17 47.9v.62"/><path d="M38.88 47.9v.62"/><path d="M46.3 47.9v.62"/><path d="M50 47.9v.62"/><path d="M53.72 47.9v.62"/><path d="M57.44 47.9v.62"/><path d="M61.15 47.9v.62"/><path d="M64.86 47.9v.62"/><path d="M1.77 51.63v.62"/><path d="M5.5 51.63v.62"/><path d="M9.2 51.63v.62"/><path d="M12.9 51.63v.62"/><path d="M16.62 51.63v.62"/><path d="M24.04 51.63v.62"/><path d="M27.75 51.63v.62"/><path d="M31.46 51.63v.62"/><path d="M35.17 51.63v.62"/><path d="M38.88 51.63v.62"/><path d="M46.3 51.63v.62"/><path d="M50 51.63v.62"/><path d="M53.72 51.63v.62"/><path d="M57.44 51.63v.62"/><path d="M61.15 51.63v.62"/></g></g></svg>