<svg xmlns="http://www.w3.org/2000/svg" width="70" height="70" viewBox="0 0 70.000001 70.000001"><g><g fill="none" stroke="#6dac3a" stroke-miterlimit="10" stroke-linecap="round" stroke-linejoin="round"><g><g><path d="M15.48 53.52h-14V29.14h13.34"/><path d="M40.15 50.25c-2.02 1.94-4.94 3.7-9.2 3.7-7.3 0-12.22-5.72-12.22-12.8 0-7.06 5-12.42 12.1-12.42 3.05 0 6.4.9 8.7 3.06"/><path d="M55.42 28.73c7 0 12.33 5.43 12.33 12.43 0 7.18-5.33 12.78-12.33 12.78S43.1 48.34 43.1 41.16c0-7 5.32-12.43 12.32-12.43z"/></g><path d="M12.7 41.34H1.48"/></g><path d="M44.14 28.78S41.7 13.6 53.6 11.18c8.5-1.74 11.5.38 14.17-2.75 0-.02 0-.03 0-.03.1 0 2.4 14.9-9.04 16.28-9.87 1.18-13 2.74-15.63 7.07 0 0 0 .02 0 .02 2.66-10.1 12.1-14.14 12.1-14.14"/></g></g></svg>