<svg xmlns="http://www.w3.org/2000/svg" width="70" height="70" viewBox="0 0 70.000001 70.000001"><g><g fill="none" stroke="#6dac3a" stroke-miterlimit="10" stroke-linecap="round" stroke-linejoin="round"><path d="M41.03 39.77c-1.22 1.46-3 2.44-5 2.6.2 12-9.64 11.76-6.34 20.12 3.23 6 6.1 7.16 12.46 4 15.36-7.74 6.07-19.94-1.13-26.73z"/><path d="M29.65 30.54c1.05-1.34 2.56-2.3 4.28-2.65-.56-12.66 9.67-12.26 6.32-20.77-3.24-6-6.12-7.16-12.47-4-15.9 8-5.4 20.8 1.87 27.4z"/><path d="M28.2 36.36c-12.8 1.36-12.9-9-21.26-5.17C1.1 34.75.1 37.7 3.62 43.85c8.78 15.3 20.84 4.44 27.1-3.15-1.3-1.08-2.22-2.6-2.53-4.34z"/><path d="M66.1 26.06c-8.63-15.06-20.45-4.78-26.8 2.8 1.64 1.03 2.84 2.68 3.27 4.62 11.76-.72 12.1 8.97 20.22 5.25 5.8-3.57 6.8-6.5 3.3-12.67z"/><path d="M36.5 32.46c-.35-.18-.73-.3-1.15-.3-.3-.02-.6.02-.87.1-.63.2-1.16.58-1.52 1.1-.27.42-.44.9-.46 1.44 0 .25.02.5.07.73.14.6.5 1.14.96 1.52.44.36 1 .58 1.62.6.12 0 .24 0 .36 0 .78-.08 1.45-.47 1.9-1.05.35-.44.57-1 .6-1.6 0-.27-.03-.54-.1-.8-.2-.76-.7-1.4-1.4-1.74z"/></g></g></svg>