<svg xmlns="http://www.w3.org/2000/svg" width="70" height="70" viewBox="0 0 170.548 170.548" enable-background="new 0 0 170.548 170.548"><linearGradient id="a" x2="170.548" y1="85.274" y2="85.274" gradientUnits="userSpaceOnUse"><stop offset="0" stop-color="#45A316"/><stop offset="1" stop-color="#017A15"/></linearGradient><circle cx="85.274" cy="85.274" r="85.274" fill="url(#a)"/><path fill="#fff" d="M122.9 47.9c-6.47-1.64-13.2-2.76-26.68-2.76-23.02 0-45.32 12.04-50.25 36.1-2.73 12.98.3 26.2 6.77 32.75 8.7 8.78 23.66 4.34 30.07 1.68 4.63-1.9 8.85-5.28 8.85-5.28l-3.12 8.76h22.27L117.77 85h-8.05c-1.14 4-2.97 7.5-5.46 10.24-3.17 3.5-7.5 5.97-12.53 7.16-1.86.44-3.75.67-5.63.67-1.2 0-2.38-.1-3.54-.27-1.03-.17-2.05-.4-3.08-.64-1.37-.32-2.68-.62-3.95-.7-.2 0-.38 0-.57 0-5.75-.32-6.68 3.9-6.68 3.9s-2.46-5.5 3.13-12.1c-.3-.2-.6-.43-.83-.72-.64-.75-.9-1.75-.75-2.72.5-3 1.33-5.86 2.43-8.55 1.97-4.82 9.17-18.23 28.3-18.23 7.7 0 14.9 2.05 18.4 4.32l3.95-19.45"/><path fill="#3EAE2C" d="M68.28 105.37 108 69.45c-.04-.26-.16-.44-.47-.54h-.08c-5.92-1.76-12.53-1.72-18.42.02-3.18.93-6.14 2.36-8.56 4.66-2.54 2.4-4.4 5.5-5.74 8.72-1.06 2.55-1.8 5.24-2.26 7.96-.08.53.46.94.95.72.2-.1.4-.2.6-.28.85-.42 1.72-.8 2.6-1.18 1.44-.6 2.9-1.12 4.4-1.63 1.43-.53 2.9-1.04 4.25-1.76 1.7-.9 3.32-1.92 4.88-3 4.07-2.83 7.84-6.2 10.98-10.05l.27-.34c.4-.45 1.1-.5 1.5 0 .5.62.04 1.2-.33 1.67-1.1 1.42-2.3 2.77-3.53 4.07-4.28 4.54-9.2 8.8-14.93 11.4-1.84.83-3.8 1.4-5.65 2.26-1.74.8-3.43 1.76-4.98 2.9-2.55 1.9-4.8 4.48-5.25 7.74-.1.85-.1 1.73.1 2.57-.18-1 .47-3.64 1.17-4.52 1.76-2.22 3.88-2.6 6.18-2.07 2.44.55 4.85.98 7.3 1.36 2.7.42 5.48.28 8.13-.36 4.26-1 8.2-3.1 11.17-6.34 2.9-3.2 4.63-7.25 5.46-11.45.8-4.07.88-8.34.3-12.43l-.03-.1v-.02z"/></svg>