<?xml version="1.0" encoding="utf-8"?>
<!-- Generator: Adobe Illustrator 24.0.2, SVG Export Plug-In . SVG Version: 6.00 Build 0)  -->
<svg version="1.1" id="Шар_1" xmlns="http://www.w3.org/2000/svg" xmlns:xlink="http://www.w3.org/1999/xlink" x="0px" y="0px"
	 viewBox="0 0 120 119" style="enable-background:new 0 0 120 119;" xml:space="preserve">
<style type="text/css">
	.st0{fill:#3F3E3E;}
</style>
<g>
	<path class="st0" d="M108.1,59.8l-36.3-7.5l8.9-13.6l-0.3-0.3l-13.6,8.9l-7.5-36.2h-0.6l-7.5,36.2l-13.7-9l-0.3,0.3l8.9,13.6
		L9.8,59.7v0.6l36.3,7.5l-8.9,13.6l0.3,0.4l13.6-8.9l7.5,36.2h0.6l7.5-36.2l13.7,9l0.3-0.3L71.8,68l36.3-7.5L108.1,59.8L108.1,59.8z
		 M104.8,59.8h-38h-7l7.7-7.7l3.9,0.7L104.8,59.8L104.8,59.8z M79.3,80.1L67.9,68.8l3.4-0.7L79.3,80.1L79.3,80.1z M79,39.8
		L67.7,51.1L67,47.7L79,39.8L79,39.8z M67,68.6l-0.8,3.9l-6.9,33.3V67.9v-7.1L67,68.6L67,68.6z M58.7,14.3v37.9v7.1L51,51.6l0.8-3.9
		L58.7,14.3L58.7,14.3z M58.1,60.4l-7.7,7.7l-3.9-0.8l-33.4-6.9h38H58.1L58.1,60.4z M51,72.5l-12.1,7.9L50.3,69L51,72.5L51,72.5z
		 M50,51.4l-3.4,0.7L38.7,40L50,51.4L50,51.4z"/>
	<path class="st0" d="M118.7,56.8c-0.6,0.1-1,1.1-1,3.1v3.7h-0.4l-4.4-6.2v1.8c0,0.9,0,1.6,0.1,2c0.1,1,0.4,1.5,0.9,1.6v0.5h-2.6
		v-0.5c0.6-0.1,1-1.3,1-3.5v-1.8c0-0.3,0-0.4-0.1-0.5s-0.3-0.1-0.7-0.1v-0.5h1.9l3.7,5.2v-1.5c0-2.1-0.3-3.2-1-3.2v-0.5h2.5
		L118.7,56.8z"/>
	<path class="st0" d="M62.7,114.7c0,0.7-0.2,1.4-0.6,2c-0.4,0.7-0.9,1.1-1.6,1.5c-0.6,0.3-1.2,0.4-1.8,0.4c-0.9,0-1.7-0.3-2.4-1
		s-1-1.4-1-2.3c0-1.1,0.4-2,1.2-2.8c0.8-0.8,1.7-1.2,2.8-1.2c1.2,0,2.2,0.5,2.9,1.5C62.5,113.4,62.7,114,62.7,114.7L62.7,114.7z
		 M61.6,115.7c0-0.6-0.1-1.2-0.4-1.8c-0.3-0.6-0.7-1.1-1.2-1.3c-0.5-0.3-0.9-0.5-1.3-0.5c-0.7,0-1.2,0.2-1.6,0.7
		c-0.4,0.4-0.6,1-0.6,1.7c0,0.9,0.3,1.7,0.8,2.4c0.6,0.7,1.3,1.1,2.2,1.1c0.6,0,1.1-0.2,1.5-0.7C61.4,116.9,61.6,116.3,61.6,115.7
		L61.6,115.7z"/>
	<path class="st0" d="M5.6,61.5c0,0.6-0.3,1.2-0.9,1.6c-0.5,0.4-1.1,0.6-1.7,0.6c-0.5,0-1-0.1-1.7-0.4v-2.1h0.6c0,0.5,0.1,1,0.4,1.3
		c0.3,0.4,0.6,0.6,1.1,0.6c0.3,0,0.6-0.1,0.8-0.3c0.2-0.2,0.3-0.5,0.3-0.8c0-0.4-0.2-0.7-0.5-1c-0.1-0.1-0.5-0.4-1-0.7
		s-0.8-0.5-1-0.7c-0.2-0.1-0.3-0.3-0.4-0.5s-0.1-0.4-0.1-0.6c0-0.6,0.3-1.1,0.8-1.5s1-0.5,1.6-0.5c0.3,0,0.8,0.1,1.4,0.3v1.8H4.7
		c0-0.5-0.1-0.8-0.4-1.1C4.1,57.2,3.8,57,3.4,57c-0.3,0-0.5,0.1-0.7,0.2c-0.2,0.2-0.3,0.4-0.3,0.6c0,0.3,0.2,0.7,0.6,1
		c0.1,0.1,0.5,0.4,1,0.8c0.5,0.3,0.8,0.6,1,0.7C5.4,60.8,5.6,61.1,5.6,61.5L5.6,61.5z"/>
	<path class="st0" d="M64.2,0.8c-0.4,0-0.8,0.5-1.2,1.4l-2.1,5.3h-0.5L58.9,3c-0.3,0.6-0.5,1.1-0.7,1.7l-1.1,2.8h-0.5l-1.8-5.3
		c-0.2-0.7-0.4-1.1-0.7-1.3c-0.1-0.1-0.2-0.1-0.4-0.2V0.2h2.1v0.5c-0.1,0-0.2,0-0.2,0.1c0,0,0,0,0,0.1l1.6,4.9L58,3.7
		c0.3-0.6,0.4-1.2,0.4-1.8c0-0.7-0.3-1-0.9-1.1V0.3h2.1v0.5c-0.2,0-0.2,0-0.2,0.1c0,0,0,0,0,0.1L61,5.9l1-2.7
		c0.3-0.8,0.5-1.4,0.5-1.8c0-0.2-0.1-0.4-0.2-0.5S62,0.8,61.6,0.8V0.3h2.6V0.8z"/>
</g>
</svg>
