<svg width="170" height="54" viewBox="0 0 170 54" fill="none" xmlns="http://www.w3.org/2000/svg">
<g clip-path="url(#clip0_299_396)">
<path d="M75.18 20.1003C75.35 19.2203 75.58 18.0303 76.88 18.0303C78.18 18.0303 77.94 19.2303 77.76 20.0903L75.9 29.0703H82.1L84.32 18.2703C84.92 15.3503 85.02 13.3203 81.12 13.3203C79.06 13.3203 76.92 14.1603 75.59 16.2803H75.52L76.1 13.6603H70.25L67.11 29.0603H73.33L75.19 20.0603" fill="#007934"/>
<path d="M102.18 13.6802H96.15L92.18 23.6002H92.12L92.32 13.6802H85.94L87.24 29.0802H94.44L102.18 13.6802ZM65.8 25.2502H59.9C58.3 25.1102 57.15 24.5502 57.4 22.9902H66.4L66.9 20.8602C67.92 15.7602 67.4 13.3202 61.54 13.3202C55.42 13.3202 52.36 15.9802 51.34 21.0602C50.34 25.8802 51.8 28.6602 56.96 29.0602H65.03L65.81 25.2402M60.6 16.8002C62.25 16.8002 62.08 18.6402 61.85 19.8002H58.05C58.22 18.6002 58.92 16.8002 60.6 16.8002ZM49.1 25.2502H43.2C41.58 25.1102 40.44 24.5502 40.68 22.9902H49.68L50.2 20.8602C51.2 15.7602 50.7 13.3202 44.83 13.3202C38.71 13.3202 35.65 15.9802 34.63 21.0602C33.63 25.8802 35.09 28.6602 40.25 29.0602H48.32L49.1 25.2402M43.87 16.8002C45.53 16.8002 45.35 18.6402 45.12 19.8002H41.32C41.5 18.6002 42.19 16.8002 43.87 16.8002ZM36.97 14.2002C37.21 14.0202 37.47 13.8402 37.73 13.6702C37.25 13.4702 36.16 13.1502 34.13 13.3702C30.03 13.8302 28.96 16.6502 28.96 16.6502L29.6 13.6802H23.8L20.65 29.0802H26.85L28.05 23.3002C28.53 21.0702 30.59 19.3002 32.62 19.3002C32.95 19.3002 33.34 19.3302 33.62 19.3702C34.29 17.1402 35.39 15.4402 36.97 14.2102M22 8.9802C20.16 8.5102 18.26 8.2002 14.46 8.2002C7.96001 8.2002 1.68001 11.6002 0.280011 18.3802C-0.489989 22.0402 0.380011 25.7802 2.18001 27.6202C4.65001 30.1002 8.88001 28.8502 10.68 28.1002C11.98 27.5602 13.18 26.6002 13.18 26.6002L12.28 29.0802H18.58L20.54 19.4502H18.27C17.95 20.5702 17.43 21.5502 16.73 22.3302C15.83 23.3302 14.61 24.0302 13.19 24.3502C12.66 24.4802 12.12 24.5502 11.59 24.5502C11.26 24.5502 10.92 24.5202 10.59 24.4702C10.29 24.4202 10.02 24.3502 9.73001 24.2902C9.33001 24.1902 8.97001 24.0902 8.61001 24.0902C8.56001 24.0902 8.51001 24.0902 8.45001 24.0702C6.83001 23.9902 6.57001 25.1702 6.57001 25.1702C6.57001 25.1702 5.87001 23.6202 7.45001 21.7702C7.35001 21.7102 7.28001 21.6402 7.21001 21.5702C7.03001 21.3502 6.96001 21.0702 7.01001 20.7902C7.14001 19.9502 7.38001 19.1402 7.69001 18.3902C8.24001 17.0202 10.27 13.2402 15.67 13.2402C17.84 13.2402 19.87 13.8202 20.87 14.4602L21.97 8.9602" fill="#007934"/>
<path d="M102.18 13.6802H96.15L92.18 23.6002H92.12L92.32 13.6802H85.94L87.24 29.0802H94.44L102.18 13.6802ZM65.8 25.2502H59.9C58.3 25.1102 57.15 24.5502 57.4 22.9902H66.4L66.9 20.8602C67.92 15.7602 67.4 13.3202 61.54 13.3202C55.42 13.3202 52.36 15.9802 51.34 21.0602C50.34 25.8802 51.8 28.6602 56.96 29.0602H65.03L65.81 25.2402M60.6 16.8002C62.25 16.8002 62.08 18.6402 61.85 19.8002H58.05C58.22 18.6002 58.92 16.8002 60.6 16.8002ZM49.1 25.2502H43.2C41.58 25.1102 40.44 24.5502 40.68 22.9902H49.68L50.2 20.8602C51.2 15.7602 50.7 13.3202 44.83 13.3202C38.71 13.3202 35.65 15.9802 34.63 21.0602C33.63 25.8802 35.09 28.6602 40.25 29.0602H48.32L49.1 25.2402M43.87 16.8002C45.53 16.8002 45.35 18.6402 45.12 19.8002H41.32C41.5 18.6002 42.19 16.8002 43.87 16.8002ZM36.97 14.2002C37.21 14.0202 37.47 13.8402 37.73 13.6702C37.25 13.4702 36.16 13.1502 34.13 13.3702C30.03 13.8302 28.96 16.6502 28.96 16.6502L29.6 13.6802H23.8L20.65 29.0802H26.85L28.05 23.3002C28.53 21.0702 30.59 19.3002 32.62 19.3002C32.95 19.3002 33.34 19.3302 33.62 19.3702C34.29 17.1402 35.39 15.4402 36.97 14.2102M22 8.9802C20.16 8.5102 18.26 8.2002 14.46 8.2002C7.96001 8.2002 1.68001 11.6002 0.280011 18.3802C-0.489989 22.0402 0.380011 25.7802 2.18001 27.6202C4.65001 30.1002 8.88001 28.8502 10.68 28.1002C11.98 27.5602 13.18 26.6002 13.18 26.6002L12.28 29.0802H18.58L20.54 19.4502H18.27C17.95 20.5702 17.43 21.5502 16.73 22.3302C15.83 23.3302 14.61 24.0302 13.19 24.3502C12.66 24.4802 12.12 24.5502 11.59 24.5502C11.26 24.5502 10.92 24.5202 10.59 24.4702C10.29 24.4202 10.02 24.3502 9.73001 24.2902C9.33001 24.1902 8.97001 24.0902 8.61001 24.0902C8.56001 24.0902 8.51001 24.0902 8.45001 24.0702C6.83001 23.9902 6.57001 25.1702 6.57001 25.1702C6.57001 25.1702 5.87001 23.6202 7.45001 21.7702C7.35001 21.7102 7.28001 21.6402 7.21001 21.5702C7.03001 21.3502 6.96001 21.0702 7.01001 20.7902C7.14001 19.9502 7.38001 19.1402 7.69001 18.3902C8.24001 17.0202 10.27 13.2402 15.67 13.2402C17.84 13.2402 19.87 13.8202 20.87 14.4602L21.97 8.9602" fill="#007934"/>
<path d="M102.18 13.6802H96.15L92.18 23.6002H92.12L92.32 13.6802H85.94L87.24 29.0802H94.44L102.18 13.6802ZM65.8 25.2502H59.9C58.3 25.1102 57.15 24.5502 57.4 22.9902H66.4L66.9 20.8602C67.92 15.7602 67.4 13.3202 61.54 13.3202C55.42 13.3202 52.36 15.9802 51.34 21.0602C50.34 25.8802 51.8 28.6602 56.96 29.0602H65.03L65.81 25.2402M60.6 16.8002C62.25 16.8002 62.08 18.6402 61.85 19.8002H58.05C58.22 18.6002 58.92 16.8002 60.6 16.8002ZM49.1 25.2502H43.2C41.58 25.1102 40.44 24.5502 40.68 22.9902H49.68L50.2 20.8602C51.2 15.7602 50.7 13.3202 44.83 13.3202C38.71 13.3202 35.65 15.9802 34.63 21.0602C33.63 25.8802 35.09 28.6602 40.25 29.0602H48.32L49.1 25.2402M43.87 16.8002C45.53 16.8002 45.35 18.6402 45.12 19.8002H41.32C41.5 18.6002 42.19 16.8002 43.87 16.8002ZM36.97 14.2002C37.21 14.0202 37.47 13.8402 37.73 13.6702C37.25 13.4702 36.16 13.1502 34.13 13.3702C30.03 13.8302 28.96 16.6502 28.96 16.6502L29.6 13.6802H23.8L20.65 29.0802H26.85L28.05 23.3002C28.53 21.0702 30.59 19.3002 32.62 19.3002C32.95 19.3002 33.34 19.3302 33.62 19.3702C34.29 17.1402 35.39 15.4402 36.97 14.2102M22 8.9802C20.16 8.5102 18.26 8.2002 14.46 8.2002C7.96001 8.2002 1.68001 11.6002 0.280011 18.3802C-0.489989 22.0402 0.380011 25.7802 2.18001 27.6202C4.65001 30.1002 8.88001 28.8502 10.68 28.1002C11.98 27.5602 13.18 26.6002 13.18 26.6002L12.28 29.0802H18.58L20.54 19.4502H18.27C17.95 20.5702 17.43 21.5502 16.73 22.3302C15.83 23.3302 14.61 24.0302 13.19 24.3502C12.66 24.4802 12.12 24.5502 11.59 24.5502C11.26 24.5502 10.92 24.5202 10.59 24.4702C10.29 24.4202 10.02 24.3502 9.73001 24.2902C9.33001 24.1902 8.97001 24.0902 8.61001 24.0902C8.56001 24.0902 8.51001 24.0902 8.45001 24.0702C6.83001 23.9902 6.57001 25.1702 6.57001 25.1702C6.57001 25.1702 5.87001 23.6202 7.45001 21.7702C7.35001 21.7102 7.28001 21.6402 7.21001 21.5702C7.03001 21.3502 6.96001 21.0702 7.01001 20.7902C7.14001 19.9502 7.38001 19.1402 7.69001 18.3902C8.24001 17.0202 10.27 13.2402 15.67 13.2402C17.84 13.2402 19.87 13.8202 20.87 14.4602L21.97 8.9602" fill="#007934"/>
<path d="M17.78 15.0604C17.78 14.9804 17.74 14.9304 17.65 14.9004H17.63C15.96 14.4004 14.09 14.4004 12.43 14.9004C11.53 15.1704 10.7 15.5704 10.03 16.2204C9.29999 16.9004 8.76999 17.7704 8.39999 18.6804C8.09999 19.4004 7.89999 20.1604 7.75999 20.9304C7.73999 21.0804 7.88999 21.1904 8.02999 21.1304C8.08999 21.1004 8.12999 21.0804 8.19999 21.0504C8.43999 20.9304 8.67999 20.8204 8.92999 20.7204C9.32999 20.5404 9.74999 20.4004 10.17 20.2604C10.57 20.1104 10.99 19.9604 11.37 19.7604C11.85 19.5104 12.31 19.2204 12.75 18.9204C13.9 18.1204 14.95 17.1704 15.85 16.0804L15.92 15.9804C16.04 15.8604 16.24 15.8504 16.35 15.9804C16.49 16.1604 16.35 16.3204 16.25 16.4604C15.95 16.8604 15.6 17.2404 15.25 17.6104C14.05 18.9104 12.65 20.1104 11.05 20.8304C10.52 21.0704 9.96999 21.2304 9.44999 21.4704C8.94999 21.7004 8.47999 21.9704 8.04999 22.2904C7.31999 22.8204 6.68999 23.5504 6.54999 24.4704C6.52999 24.7104 6.52999 24.9704 6.58999 25.2004C6.52999 24.9004 6.70999 24.1604 6.90999 23.9004C7.40999 23.3004 8.00999 23.1804 8.65999 23.3304C9.33999 23.4804 10.02 23.6004 10.71 23.7104C11.47 23.8404 12.26 23.8104 13.01 23.6104C14.21 23.3404 15.31 22.7504 16.16 21.8304C16.96 20.9304 17.46 19.7904 17.69 18.6004C17.92 17.4504 17.95 16.2404 17.79 15.1004L17.77 15.0604H17.78Z" fill="#6CC04A"/>
<path d="M113.78 33.7399H111.59V32.6699C112.83 32.6699 113.64 32.6699 113.99 32.6299C114.37 32.5999 114.69 32.5299 114.93 32.3799L115.33 32.6099V36.3699C115.67 35.1699 116.28 34.2199 117.13 33.4899C118.01 32.7599 119.13 32.3899 120.48 32.3899C122.1 32.3899 123.51 33.0499 124.68 34.3899C125.85 35.7299 126.46 37.4899 126.46 39.7299C126.46 41.9299 125.86 43.7299 124.63 45.1299C123.41 46.5299 121.95 47.2299 120.23 47.2299C119.07 47.2299 118.11 46.9299 117.35 46.3899C116.59 45.8299 116.08 45.1899 115.81 44.4899V53.0699H118.28V54.1299H111.58V53.0699H113.76V33.7399H113.78ZM116.98 44.5899C117.75 45.6199 118.78 46.1399 120.08 46.1399C121.38 46.1399 122.42 45.5599 123.18 44.4099C123.92 43.2599 124.3 41.7099 124.32 39.7699C124.34 37.7999 123.97 36.2399 123.2 35.1099C122.43 33.9799 121.4 33.4099 120.14 33.4099C118.88 33.4099 117.84 33.9699 117.04 35.0799C116.24 36.1799 115.84 37.7199 115.84 39.6799V40.2799C115.84 42.1099 116.21 43.5399 116.98 44.5799M139.84 47.1999C138.24 47.1999 137.41 46.2299 137.39 44.2799C136.54 46.2299 134.99 47.2099 132.72 47.2099C131.42 47.2099 130.36 46.8899 129.57 46.2299C128.77 45.5699 128.37 44.6099 128.37 43.3699C128.37 40.3299 130.8 38.8199 135.67 38.8199H137.21V37.3199C137.21 34.7199 136.04 33.4199 133.71 33.4199C132.05 33.4199 130.95 33.8999 130.41 34.8799C130.74 34.9399 130.99 35.0799 131.15 35.2999C131.31 35.5199 131.4 35.7599 131.4 35.9999C131.4 36.3999 131.3 36.6999 131.06 36.8999C130.83 37.1299 130.53 37.2399 130.16 37.2399C129.78 37.2399 129.48 37.1399 129.26 36.8999C129.01 36.6699 128.9 36.3499 128.9 35.9499C128.9 34.9699 129.4 34.1299 130.38 33.4499C131.38 32.7499 132.63 32.3999 134.18 32.3999C137.56 32.3999 139.26 34.0999 139.26 37.5299V44.1099C139.26 45.2599 139.66 45.8299 140.46 45.8299C141.26 45.8299 141.68 44.9799 141.68 43.2699H142.52C142.52 44.6499 142.32 45.6699 141.88 46.2899C141.46 46.9299 140.78 47.2399 139.84 47.2399M133.39 45.9399C134.46 45.9399 135.36 45.5799 136.09 44.8899C136.82 44.1999 137.21 43.3399 137.21 42.2899V39.7999H135.69C133.94 39.7999 132.64 40.0999 131.79 40.6699C130.93 41.2399 130.49 42.0499 130.49 43.0899C130.49 43.9899 130.77 44.6899 131.29 45.1699C131.82 45.6699 132.52 45.9099 133.39 45.9099" fill="#6CC04A"/>
<path d="M149.5 45.8603V46.9203H143V45.8603H145.2V33.7003H143V32.6703C144.25 32.6703 145.05 32.6703 145.4 32.6303C145.76 32.6003 146.06 32.5303 146.3 32.3803L146.74 32.6103V36.2503C147.32 33.6803 148.64 32.3903 150.74 32.3903C151.68 32.3903 152.44 32.6403 152.99 33.1403C153.54 33.6403 153.82 34.3403 153.82 35.2203C153.82 35.6903 153.72 36.0503 153.48 36.3003C153.25 36.5703 152.93 36.7003 152.53 36.7003C152.16 36.7003 151.85 36.6003 151.63 36.3803C151.39 36.1803 151.27 35.8803 151.27 35.5403C151.27 35.1803 151.37 34.8703 151.6 34.6203C151.82 34.3703 152.15 34.2503 152.57 34.2503C152.2 33.6503 151.57 33.3503 150.7 33.3503C149.53 33.3503 148.66 33.8803 148.1 34.9203C147.52 35.9703 147.24 37.3703 147.24 39.1203V45.8803H149.54L149.5 45.8603ZM160.6 46.9203H154.3V45.8603H156.48V26.4003H154.28V25.3303C155.81 25.3303 156.78 25.3303 157.23 25.2903C157.67 25.2503 157.99 25.1703 158.18 25.0303L158.53 25.2603V40.8403L165.23 33.7403H162.83V32.6603H169V33.7303H166.7L162.28 38.3803L168.23 45.8403H169.83V46.9003H163.63V45.8403H165.73L160.93 39.8003L158.53 42.3403V45.8403H160.6V46.9003V46.9203Z" fill="#6CC04A"/>
<path d="M170.09 8.04C170.09 12.48 166.49 16.08 162.04 16.08C157.59 16.08 154 12.48 154 8.04C154 3.6 157.6 0 162.05 0C166.5 0 170.09 3.6 170.09 8.04Z" fill="#007934"/>
<path d="M157.26 5.98031H158.26L157.54 8.72031H159.27L159.03 9.60031H156.29L157.26 5.98031ZM159.79 6.80031H160.81L160.91 8.43031L161.88 6.80031H162.92L161.05 9.62031H160.15L159.79 6.80031ZM163.39 6.80031H164.36L163.61 9.60031H162.63L163.38 6.80031H163.39ZM163.63 5.82031H164.65L164.45 6.55031H163.43L163.63 5.82031ZM164.79 6.80031H165.81L165.91 8.43031L166.88 6.80031H167.92L166.05 9.62031H165.15L164.79 6.80031Z" fill="white"/>
<path d="M150.755 25.1302H144.855C143.255 24.9902 142.105 24.4302 142.355 22.8702H151.355L151.855 20.7402C152.875 15.6402 152.355 13.2002 146.495 13.2002C140.375 13.2002 137.315 15.8602 136.295 20.9402C135.295 25.7602 136.755 28.5402 141.915 28.9402H149.985L150.765 25.1202M145.555 16.6802C147.205 16.6802 147.035 18.5202 146.805 19.6802H143.005C143.175 18.4802 143.875 16.6802 145.555 16.6802Z" fill="#007934"/>
<path d="M150.755 25.1302H144.855C143.255 24.9902 142.105 24.4302 142.355 22.8702H151.355L151.855 20.7402C152.875 15.6402 152.355 13.2002 146.495 13.2002C140.375 13.2002 137.315 15.8602 136.295 20.9402C135.295 25.7602 136.755 28.5402 141.915 28.9402H149.985L150.765 25.1202M145.555 16.6802C147.205 16.6802 147.035 18.5202 146.805 19.6802H143.005C143.175 18.4802 143.875 16.6802 145.555 16.6802Z" fill="#007934"/>
<path d="M150.755 25.1302H144.855C143.255 24.9902 142.105 24.4302 142.355 22.8702H151.355L151.855 20.7402C152.875 15.6402 152.355 13.2002 146.495 13.2002C140.375 13.2002 137.315 15.8602 136.295 20.9402C135.295 25.7602 136.755 28.5402 141.915 28.9402H149.985L150.765 25.1202M145.555 16.6802C147.205 16.6802 147.035 18.5202 146.805 19.6802H143.005C143.175 18.4802 143.875 16.6802 145.555 16.6802Z" fill="#007934"/>
<path d="M137.24 13.5996H131.21L127.24 23.5196H127.18L127.38 13.5996H121L122.3 28.9996H129.5L137.24 13.5996Z" fill="#007934"/>
<path d="M137.24 13.5996H131.21L127.24 23.5196H127.18L127.38 13.5996H121L122.3 28.9996H129.5L137.24 13.5996Z" fill="#007934"/>
<path d="M137.24 13.5996H131.21L127.24 23.5196H127.18L127.38 13.5996H121L122.3 28.9996H129.5L137.24 13.5996Z" fill="#007934"/>
<path d="M118.75 13.6304H112.55L109.4 29.0304H115.6L118.75 13.6304ZM113.81 7.40039H120.01L119.19 11.4304H112.99L113.81 7.40039Z" fill="#007934"/>
<path d="M111.7 7H105.5L101 29.04H107.22L111.7 7Z" fill="#007934"/>
<path d="M111.7 7H105.5L101 29.04H107.22L111.7 7Z" fill="#007934"/>
<path d="M111.7 7H105.5L101 29.04H107.22L111.7 7Z" fill="#007934"/>
</g>
<defs>
<clipPath id="clip0_299_396">
<rect width="170" height="54" fill="white"/>
</clipPath>
</defs>
</svg>
