<?xml version="1.0" encoding="utf-8"?>
<!-- Generator: Adobe Illustrator 24.0.2, SVG Export Plug-In . SVG Version: 6.00 Build 0)  -->
<svg version="1.1" id="Слой_1" xmlns="http://www.w3.org/2000/svg" xmlns:xlink="http://www.w3.org/1999/xlink" x="0px" y="0px"
	 viewBox="0 0 307.03 462.38" style="enable-background:new 0 0 307.03 462.38;" xml:space="preserve">
<style type="text/css">
	.st0{fill-rule:evenodd;clip-rule:evenodd;fill:#4D8C3F;stroke:#4D8C3F;stroke-width:3;stroke-miterlimit:10;}
	.st1{fill-rule:evenodd;clip-rule:evenodd;fill:none;stroke:#868686;stroke-width:3;stroke-miterlimit:10;}
	.st2{fill-rule:evenodd;clip-rule:evenodd;fill:none;stroke:#585857;stroke-width:3;stroke-miterlimit:10;}
	.st3{fill:none;stroke:#585857;stroke-width:3;stroke-miterlimit:10;}
	.st4{fill:#4D8C3F;stroke:#4D8C3F;stroke-width:3;stroke-miterlimit:10;}
</style>
<g>
	<polyline class="st1" points="123.95,39.38 116.82,40.2 109.77,41.54 102.83,43.4 96.06,45.76 89.47,48.61 83.11,51.94 
		77.02,55.72 56.62,25.1 63.91,20.54 71.48,16.45 79.3,12.86 87.32,9.77 95.54,7.2 103.89,5.17 112.37,3.67 120.92,2.71 
		123.95,39.38 	"/>
	<polyline class="st0" points="56.62,25.1 77.02,55.72 71.33,59.85 65.95,64.38 60.91,69.29 56.24,74.54 51.97,80.12 48.1,86 
		11.73,76.12 16.56,67.6 21.96,59.42 27.92,51.64 34.39,44.28 41.35,37.38 48.77,30.98 56.62,25.1 	"/>
	<polyline class="st2" points="116.95,325.26 105.6,361.23 60.05,346.85 23.6,335.35 13.74,292.68 116.95,325.26 	"/>
	<polyline class="st2" points="180.92,244.88 298.54,289.32 294.6,307.7 290.19,325.97 167.71,280.21 180.92,244.88 	"/>
	<polyline class="st2" points="135.05,215.53 133.17,253.2 16.36,247.37 12.74,209.42 135.05,215.53 	"/>
	<polyline class="st1" points="269.28,194.58 307.03,200.56 306.62,218.41 305.57,236.24 303.87,254.01 301.52,271.71 
		298.54,289.32 262.72,275.79 265.2,259.66 267.1,243.46 268.41,227.19 269.14,210.89 269.28,194.58 	"/>
	<polyline class="st1" points="289.53,105.17 296.05,133.52 302,161.99 259.95,155.32 257.7,142.29 255.02,129.34 251.9,116.49 
		248.36,103.75 289.53,105.17 	"/>
	<polyline class="st2" points="200.04,145.82 302,161.99 304.82,181.24 307.03,200.56 194.19,182.67 200.04,145.82 	"/>
	<polyline class="st2" points="225.81,16.7 232.88,20.95 239.66,25.64 246.14,30.75 252.29,36.25 258.07,42.12 263.48,48.35 
		268.9,57.28 273.91,66.46 278.48,75.85 282.62,85.45 286.3,95.23 289.53,105.17 248.36,103.75 244.16,89.51 239.62,75.39 
		203.96,54.11 225.81,16.7 	"/>
	<polyline class="st2" points="159.79,0 168.38,0.16 176.95,0.88 185.45,2.16 193.85,4 202.11,6.38 210.2,9.29 218.08,12.73 
		225.72,16.67 203.87,54.06 184.41,42.48 180.86,40.66 177.11,39.32 173.22,38.47 169.25,38.13 154.14,37.95 139.03,38.37 
		123.95,39.38 120.92,2.71 130.58,1.43 140.3,0.54 150.04,0.07 159.79,0 	"/>
	<polyline class="st2" points="157.65,115.73 147.88,151.74 0,111.6 2.09,102.47 4.75,93.49 7.97,84.7 11.73,76.12 157.65,115.73 	
		"/>
	<g>
		<polygon class="st3" points="94.66,423.22 119.85,461.19 181.6,461.79 181.6,424.07 		"/>
		<polygon class="st3" points="268.55,424.91 181.6,424.07 181.6,461.79 242.62,462.38 		"/>
	</g>
	<polygon class="st3" points="214.64,348.42 174,339.8 149.29,328.15 146.86,334.52 139.94,367.14 206.79,381.32 274.29,395.63 
		281.31,362.56 	"/>
</g>
</svg>
